<svg width="32" height="32" viewBox="0 0 32 32" fill="none" xmlns="http://www.w3.org/2000/svg">
<path d="M21.8218 8.57129C19.3018 8.57129 18.2368 9.77379 16.4818 9.77379C14.6824 9.77379 13.3099 8.58004 11.1262 8.58004C8.98868 8.58004 6.70931 9.88504 5.26181 12.1082C3.22931 15.2432 3.57431 21.1475 6.86618 26.1775C8.04368 27.9782 9.61618 29.9975 11.6787 30.0194H11.7162C13.5087 30.0194 14.0412 28.8457 16.5081 28.8319H16.5456C18.9756 28.8319 19.4631 30.0125 21.2481 30.0125H21.2856C23.3481 29.9907 25.0049 27.7532 26.1824 25.9594C27.0299 24.6694 27.3449 24.0219 27.9949 22.5625C23.2331 20.755 22.4681 14.0044 27.1774 11.4163C25.7399 9.61629 23.7199 8.57379 21.8156 8.57379L21.8218 8.57129Z" fill="black"/>
<path d="M21.2656 2C19.7656 2.10187 18.0156 3.05687 16.9906 4.30375C16.0606 5.43375 15.2956 7.11 15.5956 8.73562H15.7156C17.3131 8.73562 18.9481 7.77375 19.9031 6.54125C20.8231 5.36812 21.5206 3.70562 21.2656 2Z" fill="black"/>
</svg>
