<svg width="96" height="96" viewBox="0 0 96 96" fill="none" xmlns="http://www.w3.org/2000/svg">
<path d="M37.2401 26.8401C36.8693 27.2101 36.5751 27.6497 36.3744 28.1336C36.1736 28.6175 36.0703 29.1362 36.0703 29.6601C36.0703 30.184 36.1736 30.7027 36.3744 31.1866C36.5751 31.6705 36.8693 32.11 37.2401 32.4801L52.7601 48.0001L37.2401 63.5201C36.4922 64.268 36.072 65.2824 36.072 66.3401C36.072 67.3978 36.4922 68.4122 37.2401 69.1601C37.988 69.908 39.0024 70.3282 40.0601 70.3282C41.1178 70.3282 42.1322 69.908 42.8801 69.1601L61.2401 50.8001C61.6109 50.43 61.9051 49.9905 62.1058 49.5066C62.3065 49.0227 62.4099 48.504 62.4099 47.9801C62.4099 47.4562 62.3065 46.9375 62.1058 46.4536C61.9051 45.9697 61.6109 45.5301 61.2401 45.1601L42.8801 26.8001C41.3601 25.2801 38.8001 25.2801 37.2401 26.8401Z" fill="#F0BD81"/>
</svg>
