<svg width="96" height="96" viewBox="0 0 96 96" fill="none" xmlns="http://www.w3.org/2000/svg">
<path d="M58.7599 69.1599C59.1307 68.7899 59.4249 68.3503 59.6256 67.8664C59.8264 67.3825 59.9297 66.8638 59.9297 66.3399C59.9297 65.816 59.8264 65.2973 59.6256 64.8134C59.4249 64.3295 59.1307 63.89 58.7599 63.5199L43.2399 47.9999L58.7599 32.4799C59.5078 31.732 59.928 30.7176 59.928 29.6599C59.928 28.6022 59.5078 27.5878 58.7599 26.8399C58.012 26.092 56.9976 25.6718 55.9399 25.6718C54.8822 25.6718 53.8678 26.092 53.1199 26.8399L34.7599 45.1999C34.3891 45.57 34.0949 46.0095 33.8942 46.4934C33.6935 46.9773 33.5901 47.496 33.5901 48.0199C33.5901 48.5438 33.6935 49.0625 33.8942 49.5464C34.0949 50.0303 34.3891 50.4699 34.7599 50.8399L53.1199 69.1999C54.6399 70.7199 57.1999 70.7199 58.7599 69.1599Z" fill="#F0BD81"/>
</svg>
